<?xml version="1.0" encoding="UTF-8" standalone="no"?>
<svg width="444px" height="242px" viewBox="0 0 444 242" version="1.1" xmlns="http://www.w3.org/2000/svg" xmlns:xlink="http://www.w3.org/1999/xlink">
    <!-- Generator: Sketch 3.6.1 (26313) - http://www.bohemiancoding.com/sketch -->
    <title>keyboard</title>
    <desc>Created with Sketch.</desc>
    <defs></defs>
    <g id="Page-1" stroke="none" stroke-width="1" fill="none" fill-rule="evenodd">
        <g id="keyboard">
            <path d="M23.9346304,63.7252773 L55.1655782,63.7252773 C58.000329,63.7252773 60.450982,61.2858876 60.450982,58.4172956 L60.450982,27.0529371 C60.450982,24.2115098 58.0219684,21.7449554 55.1655782,21.7449554 L23.9346304,21.7449554 C21.1052894,21.7449554 18.6492267,24.1897781 18.6492267,27.0529371 L18.6492267,58.4172956 C18.6492267,61.6879251 21.1052894,63.7252773 23.9346304,63.7252773 L23.9346304,63.7252773 Z" id="Fill-1" fill-opacity="0.100000001" fill="#000000"></path>
            <path d="M360.696539,219.797324 L417.499752,219.797324 C420.329093,219.797324 422.785156,217.352502 422.785156,214.489343 L422.785156,183.124984 C422.785156,180.278124 420.350733,177.817002 417.499752,177.817002 L360.696539,177.817002 C357.867198,177.817002 355.411135,180.256392 355.411135,183.124984 L355.411135,214.489343 C355.010808,217.759972 357.867198,219.797324 360.696539,219.797324 L360.696539,219.797324 Z" id="Fill-2" fill-opacity="0.100000001" fill="#000000"></path>
            <path d="M339.609022,219.797324 L101.024706,219.797324 C98.1953649,219.797324 95.7393021,217.352502 95.7393021,214.489343 L95.7393021,183.124984 C95.7393021,180.278124 98.1737256,177.817002 101.024706,177.817002 L339.609022,177.817002 C342.438363,177.817002 344.889016,180.256392 344.889016,183.124984 L344.889016,214.489343 C344.867377,217.759972 342.438363,219.797324 339.609022,219.797324 L339.609022,219.797324 Z" id="Fill-3" fill="#E5E5E5"></path>
            <path d="M23.9346304,219.797324 L80.7378439,219.797324 C83.5671849,219.797324 86.0232477,217.352502 86.0232477,214.489343 L86.0232477,183.124984 C86.0232477,180.278124 83.5888243,177.817002 80.7378439,177.817002 L23.9346304,177.817002 C21.1052894,177.817002 18.6492267,180.256392 18.6492267,183.124984 L18.6492267,214.489343 C18.6492267,217.759972 21.1052894,219.797324 23.9346304,219.797324 L23.9346304,219.797324 Z" id="Fill-4" fill="#A5ECFA"></path>
            <path d="M23.9346304,115.89236 L75.8798167,115.89236 C78.7091577,115.89236 81.1598107,113.447538 81.1598107,110.584379 L81.1598107,79.2200202 C81.1598107,76.37316 78.7307971,73.9120385 75.8798167,73.9120385 L23.9346304,73.9120385 C21.1052894,73.9120385 18.6492267,76.3514282 18.6492267,79.2200202 L18.6492267,110.584379 C18.6492267,113.425806 21.1052894,115.89236 23.9346304,115.89236 L23.9346304,115.89236 Z" id="Fill-5" fill-opacity="0.100000001" fill="#000000"></path>
            <path d="M355.010808,115.89236 L417.099425,115.89236 C419.928766,115.89236 422.379419,113.447538 422.379419,110.584379 L422.379419,79.2200202 C422.379419,76.37316 419.950405,73.9120385 417.099425,73.9120385 L355.010808,73.9120385 C352.181467,73.9120385 349.730814,76.3514282 349.730814,79.2200202 L349.730814,110.584379 C350.553108,113.425806 352.581794,115.89236 355.010808,115.89236 L355.010808,115.89236 Z" id="Fill-6" fill-opacity="0.100000001" fill="#000000"></path>
            <path d="M75.4524402,63.7252773 L106.688798,63.7252773 C109.518139,63.7252773 111.968792,61.2858876 111.968792,58.4172956 L111.968792,27.0529371 C111.968792,24.2115098 109.539778,21.7449554 106.688798,21.7449554 L75.4524402,21.7449554 C72.6230991,21.7449554 70.1724462,24.1897781 70.1724462,27.0529371 L70.1724462,58.4172956 C70.5944129,61.6879251 72.6230991,63.7252773 75.4524402,63.7252773 L75.4524402,63.7252773 Z" id="Fill-7" fill-opacity="0.100000001" fill="#000000"></path>
            <path d="M127.397626,63.7252773 L158.628574,63.7252773 C161.463325,63.7252773 163.913978,61.2858876 163.913978,58.4172956 L163.913978,27.0529371 C163.913978,24.2115098 161.484964,21.7449554 158.628574,21.7449554 L127.397626,21.7449554 C124.568285,21.7449554 122.112223,24.1897781 122.112223,27.0529371 L122.112223,58.4172956 C122.112223,61.6879251 124.568285,63.7252773 127.397626,63.7252773 L127.397626,63.7252773 Z" id="Fill-8" fill-opacity="0.100000001" fill="#000000"></path>
            <path d="M179.342813,63.7252773 L210.57376,63.7252773 C213.403101,63.7252773 215.859164,61.2858876 215.859164,58.4172956 L215.859164,27.0529371 C215.859164,24.2115098 213.424741,21.7449554 210.57376,21.7449554 L179.342813,21.7449554 C176.508062,21.7449554 174.057409,24.1897781 174.057409,27.0529371 L174.057409,58.4172956 C174.057409,61.6879251 176.086095,63.7252773 179.342813,63.7252773 L179.342813,63.7252773 Z" id="Fill-9" fill-opacity="0.100000001" fill="#000000"></path>
            <path d="M230.860622,63.7252773 L262.09157,63.7252773 C264.926321,63.7252773 267.376974,61.2858876 267.376974,58.4172956 L267.376974,27.0529371 C267.376974,24.2115098 264.94796,21.7449554 262.09157,21.7449554 L230.860622,21.7449554 C228.031281,21.7449554 225.575219,24.1897781 225.575219,27.0529371 L225.575219,58.4172956 C226.002595,61.6879251 228.031281,63.7252773 230.860622,63.7252773 L230.860622,63.7252773 Z" id="Fill-10" fill-opacity="0.100000001" fill="#000000"></path>
            <path d="M282.805809,63.7252773 L314.036756,63.7252773 C316.866097,63.7252773 319.32216,61.2858876 319.32216,58.4172956 L319.32216,27.0529371 C319.32216,24.2115098 316.887737,21.7449554 314.036756,21.7449554 L282.805809,21.7449554 C279.971058,21.7449554 277.520405,24.1897781 277.520405,27.0529371 L277.520405,58.4172956 C277.520405,61.6879251 279.549091,63.7252773 282.805809,63.7252773 L282.805809,63.7252773 Z" id="Fill-11" fill-opacity="0.100000001" fill="#000000"></path>
            <path d="M334.323618,63.7252773 L365.554566,63.7252773 C368.389317,63.7252773 370.83997,61.2858876 370.83997,58.4172956 L370.83997,27.0529371 C370.83997,24.2115098 368.410956,21.7449554 365.554566,21.7449554 L334.323618,21.7449554 C331.494277,21.7449554 329.038215,24.1897781 329.038215,27.0529371 L329.038215,58.4172956 C329.465591,61.6879251 331.494277,63.7252773 334.323618,63.7252773 L334.323618,63.7252773 Z" id="Fill-12" fill-opacity="0.100000001" fill="#000000"></path>
            <path d="M386.268805,63.7252773 L417.499752,63.7252773 C420.329093,63.7252773 422.785156,61.2858876 422.785156,58.4172956 L422.785156,27.0529371 C422.785156,24.2115098 420.350733,21.7449554 417.499752,21.7449554 L386.268805,21.7449554 C383.434054,21.7449554 380.983401,24.1897781 380.983401,27.0529371 L380.983401,58.4172956 C380.983401,61.6879251 383.412415,63.7252773 386.268805,63.7252773 L386.268805,63.7252773 Z" id="Fill-13" fill-opacity="0.100000001" fill="#000000"></path>
            <path d="M96.1666787,115.89236 L127.397626,115.89236 C130.226967,115.89236 132.68303,113.447538 132.68303,110.584379 L132.68303,79.2200202 C132.68303,76.37316 130.248607,73.9120385 127.397626,73.9120385 L96.1666787,73.9120385 C93.3319278,73.9120385 90.8812749,76.3514282 90.8812749,79.2200202 L90.8812749,110.584379 C90.8812749,113.425806 92.9099611,115.89236 96.1666787,115.89236 L96.1666787,115.89236 Z" id="Fill-14" fill-opacity="0.100000001" fill="#000000"></path>
            <path d="M147.684488,115.89236 L178.915436,115.89236 C181.750187,115.89236 184.20084,113.447538 184.20084,110.584379 L184.20084,79.2200202 C184.20084,76.37316 181.771826,73.9120385 178.915436,73.9120385 L147.684488,73.9120385 C144.855147,73.9120385 142.399085,76.3514282 142.399085,79.2200202 L142.399085,110.584379 C142.826461,113.425806 144.855147,115.89236 147.684488,115.89236 L147.684488,115.89236 Z" id="Fill-15" fill-opacity="0.100000001" fill="#000000"></path>
            <path d="M199.629675,115.89236 L230.860622,115.89236 C233.689963,115.89236 236.146026,113.447538 236.146026,110.584379 L236.146026,79.2200202 C236.146026,76.37316 233.711603,73.9120385 230.860622,73.9120385 L199.629675,73.9120385 C196.794924,73.9120385 194.344271,76.3514282 194.344271,79.2200202 L194.344271,110.584379 C194.344271,113.425806 197.173612,115.89236 199.629675,115.89236 L199.629675,115.89236 Z" id="Fill-16" fill-opacity="0.100000001" fill="#000000"></path>
            <path d="M251.547812,115.89236 L282.784169,115.89236 C285.61351,115.89236 288.064163,113.447538 288.064163,110.584379 L288.064163,79.2200202 C288.064163,76.37316 285.63515,73.9120385 282.784169,73.9120385 L251.547812,73.9120385 C248.718471,73.9120385 246.267818,76.3514282 246.267818,79.2200202 L246.267818,110.584379 C246.289457,113.425806 249.118798,115.89236 251.547812,115.89236 L251.547812,115.89236 Z" id="Fill-17" fill="#A5ECFA"></path>
            <path d="M303.092671,115.89236 L334.323618,115.89236 C337.152959,115.89236 339.609022,113.447538 339.609022,110.584379 L339.609022,79.2200202 C339.609022,76.37316 337.174599,73.9120385 334.323618,73.9120385 L303.092671,73.9120385 C300.25792,73.9120385 297.807267,76.3514282 297.807267,79.2200202 L297.807267,110.584379 C298.207594,113.425806 300.236281,115.89236 303.092671,115.89236 L303.092671,115.89236 Z" id="Fill-18" fill-opacity="0.100000001" fill="#000000"></path>
            <path d="M23.9346304,168.032279 L55.1655782,168.032279 C58.000329,168.032279 60.450982,165.592889 60.450982,162.72973 L60.450982,131.359939 C60.450982,128.518511 58.0219684,126.05739 55.1655782,126.05739 L23.9346304,126.05739 C21.1052894,126.05739 18.6492267,128.49678 18.6492267,131.359939 L18.6492267,162.72973 C18.6492267,165.592889 21.1052894,168.032279 23.9346304,168.032279 L23.9346304,168.032279 Z" id="Fill-19" fill="#A5ECFA"></path>
            <path d="M75.4524402,168.032279 L106.688798,168.032279 C109.518139,168.032279 111.968792,165.592889 111.968792,162.72973 L111.968792,131.359939 C111.968792,128.518511 109.539778,126.05739 106.688798,126.05739 L75.4524402,126.05739 C72.6230991,126.05739 70.1724462,128.49678 70.1724462,131.359939 L70.1724462,162.72973 C70.5944129,165.592889 72.6230991,168.032279 75.4524402,168.032279 L75.4524402,168.032279 Z" id="Fill-20" fill-opacity="0.100000001" fill="#000000"></path>
            <path d="M127.397626,168.032279 L158.628574,168.032279 C161.463325,168.032279 163.913978,165.592889 163.913978,162.72973 L163.913978,131.359939 C163.913978,128.518511 161.484964,126.05739 158.628574,126.05739 L127.397626,126.05739 C124.568285,126.05739 122.112223,128.49678 122.112223,131.359939 L122.112223,162.72973 C122.112223,165.592889 124.568285,168.032279 127.397626,168.032279 L127.397626,168.032279 Z" id="Fill-21" fill-opacity="0.100000001" fill="#000000"></path>
            <path d="M179.342813,168.032279 L210.57376,168.032279 C213.403101,168.032279 215.859164,165.592889 215.859164,162.72973 L215.859164,131.359939 C215.859164,128.518511 213.424741,126.05739 210.57376,126.05739 L179.342813,126.05739 C176.508062,126.05739 174.057409,128.49678 174.057409,131.359939 L174.057409,162.72973 C174.057409,165.592889 176.086095,168.032279 179.342813,168.032279 L179.342813,168.032279 Z" id="Fill-22" fill-opacity="0.100000001" fill="#000000"></path>
            <path d="M230.860622,168.032279 L262.09157,168.032279 C264.926321,168.032279 267.376974,165.592889 267.376974,162.72973 L267.376974,131.359939 C267.376974,128.518511 264.94796,126.05739 262.09157,126.05739 L230.860622,126.05739 C228.031281,126.05739 225.575219,128.49678 225.575219,131.359939 L225.575219,162.72973 C226.002595,165.592889 228.031281,168.032279 230.860622,168.032279 L230.860622,168.032279 Z" id="Fill-23" fill-opacity="0.100000001" fill="#000000"></path>
            <path d="M282.805809,168.032279 L314.036756,168.032279 C316.866097,168.032279 319.32216,165.592889 319.32216,162.72973 L319.32216,131.359939 C319.32216,128.518511 316.887737,126.05739 314.036756,126.05739 L282.805809,126.05739 C279.971058,126.05739 277.520405,128.49678 277.520405,131.359939 L277.520405,162.72973 C277.520405,165.592889 279.549091,168.032279 282.805809,168.032279 L282.805809,168.032279 Z" id="Fill-24" fill-opacity="0.100000001" fill="#000000"></path>
            <path d="M334.323618,168.032279 L365.554566,168.032279 C368.389317,168.032279 370.83997,165.592889 370.83997,162.72973 L370.83997,131.359939 C370.83997,128.518511 368.410956,126.05739 365.554566,126.05739 L334.323618,126.05739 C331.494277,126.05739 329.038215,128.49678 329.038215,131.359939 L329.038215,162.72973 C329.465591,165.592889 331.494277,168.032279 334.323618,168.032279 L334.323618,168.032279 Z" id="Fill-25" fill-opacity="0.100000001" fill="#000000"></path>
            <path d="M386.268805,168.032279 L417.499752,168.032279 C420.329093,168.032279 422.785156,165.592889 422.785156,162.72973 L422.785156,131.359939 C422.785156,128.518511 420.350733,126.05739 417.499752,126.05739 L386.268805,126.05739 C383.434054,126.05739 380.983401,128.49678 380.983401,131.359939 L380.983401,162.72973 C380.983401,165.592889 383.412415,168.032279 386.268805,168.032279 L386.268805,168.032279 Z" id="Fill-26" fill-opacity="0.100000001" fill="#000000"></path>
        </g>
    </g>
</svg>